<mxfile host="app.diagrams.net" agent="Mozilla/5.0 (Windows NT 10.0; Win64; x64) AppleWebKit/537.36 (KHTML, like Gecko) Chrome/135.0.0.0 Safari/537.36" version="26.2.9">
  <diagram name="Page-1" id="2YBvvXClWsGukQMizWep">
    <mxGraphModel dx="1457" dy="742" grid="0" gridSize="10" guides="1" tooltips="1" connect="1" arrows="1" fold="1" page="1" pageScale="1" pageWidth="4681" pageHeight="3300" background="none" math="0" shadow="0">
      <root>
        <mxCell id="0" />
        <mxCell id="1" parent="0" />
        <mxCell id="vtyGRnQgsWWQ4yg0oaad-55" style="edgeStyle=none;curved=1;rounded=0;orthogonalLoop=1;jettySize=auto;html=1;exitX=1;exitY=1;exitDx=0;exitDy=0;exitPerimeter=0;entryX=0.5;entryY=0;entryDx=0;entryDy=0;fontSize=12;startSize=8;endSize=8;" parent="1" source="vtyGRnQgsWWQ4yg0oaad-3" target="vtyGRnQgsWWQ4yg0oaad-6" edge="1">
          <mxGeometry relative="1" as="geometry">
            <Array as="points" />
          </mxGeometry>
        </mxCell>
        <mxCell id="vtyGRnQgsWWQ4yg0oaad-61" style="edgeStyle=none;curved=1;rounded=0;orthogonalLoop=1;jettySize=auto;html=1;exitX=1;exitY=0.5;exitDx=0;exitDy=0;exitPerimeter=0;entryX=0.5;entryY=0;entryDx=0;entryDy=0;fontSize=12;startSize=8;endSize=8;" parent="1" source="vtyGRnQgsWWQ4yg0oaad-3" target="Y4Lj4d0mCqBKrfURwG_y-66" edge="1">
          <mxGeometry relative="1" as="geometry">
            <Array as="points" />
          </mxGeometry>
        </mxCell>
        <mxCell id="vtyGRnQgsWWQ4yg0oaad-69" style="edgeStyle=none;curved=1;rounded=0;orthogonalLoop=1;jettySize=auto;html=1;exitX=1;exitY=0;exitDx=0;exitDy=0;exitPerimeter=0;fontSize=12;startSize=8;endSize=8;entryX=0.5;entryY=0;entryDx=0;entryDy=0;" parent="1" source="vtyGRnQgsWWQ4yg0oaad-3" target="vtyGRnQgsWWQ4yg0oaad-72" edge="1">
          <mxGeometry relative="1" as="geometry">
            <mxPoint x="3627.2279791159326" y="1188.4792892718742" as="targetPoint" />
            <Array as="points">
              <mxPoint x="3240" y="928" />
            </Array>
          </mxGeometry>
        </mxCell>
        <mxCell id="vtyGRnQgsWWQ4yg0oaad-3" value="" style="strokeWidth=2;html=1;shape=mxgraph.flowchart.annotation_2;align=left;labelPosition=right;pointerEvents=1;rotation=90;" parent="1" vertex="1">
          <mxGeometry x="2692.1370790358915" y="640.1710056086974" width="74.23391623158192" height="216.685404196788" as="geometry" />
        </mxCell>
        <mxCell id="vtyGRnQgsWWQ4yg0oaad-39" style="edgeStyle=none;curved=1;rounded=0;orthogonalLoop=1;jettySize=auto;html=1;exitX=1;exitY=0.25;exitDx=0;exitDy=0;fontSize=12;startSize=8;endSize=8;entryX=0;entryY=0.5;entryDx=0;entryDy=0;" parent="1" source="Y4Lj4d0mCqBKrfURwG_y-30" target="vtyGRnQgsWWQ4yg0oaad-35" edge="1">
          <mxGeometry relative="1" as="geometry">
            <mxPoint x="320.4444378909194" y="1563.3827229504384" as="targetPoint" />
          </mxGeometry>
        </mxCell>
        <mxCell id="Y4Lj4d0mCqBKrfURwG_y-30" value="&lt;font style=&quot;font-size: 20px;&quot;&gt;fichier json/csv avec les coordonnées des étoiles&lt;/font&gt;&lt;div&gt;&lt;font style=&quot;font-size: 20px;&quot;&gt;(chemin d&#39;accès qui ne change pas)&lt;/font&gt;&lt;/div&gt;" style="text;html=1;align=center;verticalAlign=middle;whiteSpace=wrap;rounded=0;" parent="1" vertex="1">
          <mxGeometry x="53" y="1535" width="232" height="56.53" as="geometry" />
        </mxCell>
        <mxCell id="uxtLRJ9bp2ce0IZGOA4o-36" style="edgeStyle=orthogonalEdgeStyle;rounded=1;orthogonalLoop=1;jettySize=auto;html=1;exitX=0.5;exitY=1;exitDx=0;exitDy=0;strokeColor=light-dark(#8126ab, #9577a3);strokeWidth=2;align=center;verticalAlign=middle;arcSize=14;absoluteArcSize=1;fontFamily=Helvetica;fontSize=12;fontColor=default;fontStyle=1;fillColor=#CC99FF;entryX=0.389;entryY=0.005;entryDx=0;entryDy=0;entryPerimeter=0;" parent="1" source="Y4Lj4d0mCqBKrfURwG_y-31" target="Y4Lj4d0mCqBKrfURwG_y-6" edge="1">
          <mxGeometry relative="1" as="geometry">
            <mxPoint x="860.3274650296971" y="2432.0650872708316" as="targetPoint" />
          </mxGeometry>
        </mxCell>
        <mxCell id="Y4Lj4d0mCqBKrfURwG_y-31" value="&lt;font style=&quot;font-size: 22px;&quot;&gt;Projection sur le plan&lt;/font&gt;&lt;div&gt;&lt;font style=&quot;font-size: 22px;&quot;&gt;(-&amp;gt; peut être commencer sans )&lt;span style=&quot;background-color: transparent; color: light-dark(rgb(0, 0, 0), rgb(255, 255, 255));&quot;&gt;&amp;nbsp;&lt;/span&gt;&lt;/font&gt;&lt;/div&gt;" style="whiteSpace=wrap;html=1;rounded=1;arcSize=14;strokeWidth=2;fillColor=#CC99FF;strokeColor=light-dark(#8126ab, #9577a3);" parent="1" vertex="1">
          <mxGeometry x="183" y="1846.02" width="245.42" height="113.05" as="geometry" />
        </mxCell>
        <mxCell id="Y4Lj4d0mCqBKrfURwG_y-34" value="" style="group" parent="1" vertex="1" connectable="0">
          <mxGeometry x="2682.4284127034543" y="354.99786969984353" width="134.9707567846944" height="339.1597630906246" as="geometry" />
        </mxCell>
        <mxCell id="vtyGRnQgsWWQ4yg0oaad-1" value="" style="verticalLabelPosition=bottom;verticalAlign=top;html=1;shape=mxgraph.basic.diag_round_rect;dx=6;whiteSpace=wrap;" parent="Y4Lj4d0mCqBKrfURwG_y-34" vertex="1">
          <mxGeometry y="226.10650872708308" width="134.9707567846944" height="113.05325436354154" as="geometry" />
        </mxCell>
        <mxCell id="vtyGRnQgsWWQ4yg0oaad-2" value="&lt;font style=&quot;font-size: 30px;&quot;&gt;Main&lt;/font&gt;" style="text;strokeColor=none;fillColor=none;html=1;align=center;verticalAlign=middle;whiteSpace=wrap;rounded=0;fontSize=16;" parent="Y4Lj4d0mCqBKrfURwG_y-34" vertex="1">
          <mxGeometry x="26.99415135693888" y="254.3698223179684" width="80.98245407081664" height="56.52662718177077" as="geometry" />
        </mxCell>
        <mxCell id="vtyGRnQgsWWQ4yg0oaad-4" value="" style="html=1;shadow=0;dashed=0;align=center;verticalAlign=middle;shape=mxgraph.arrows2.arrow;dy=0.6;dx=40;direction=south;notch=0;" parent="Y4Lj4d0mCqBKrfURwG_y-34" vertex="1">
          <mxGeometry x="47.23976487464304" y="75.36883624236104" width="47.23976487464304" height="131.8954634241318" as="geometry" />
        </mxCell>
        <mxCell id="vtyGRnQgsWWQ4yg0oaad-5" value="image png" style="text;strokeColor=none;fillColor=none;html=1;align=center;verticalAlign=middle;whiteSpace=wrap;rounded=0;fontSize=16;" parent="Y4Lj4d0mCqBKrfURwG_y-34" vertex="1">
          <mxGeometry x="30.368420276556243" width="80.98245407081664" height="56.52662718177077" as="geometry" />
        </mxCell>
        <mxCell id="Y4Lj4d0mCqBKrfURwG_y-35" value="" style="group" parent="Y4Lj4d0mCqBKrfURwG_y-34" vertex="1" connectable="0">
          <mxGeometry x="26.99415135693888" y="-18.84220906059026" width="13.49707567846944" height="25" as="geometry" />
        </mxCell>
        <mxCell id="Y4Lj4d0mCqBKrfURwG_y-17" value="" style="ellipse;shape=cloud;whiteSpace=wrap;html=1;" parent="Y4Lj4d0mCqBKrfURwG_y-35" vertex="1">
          <mxGeometry as="geometry" />
        </mxCell>
        <mxCell id="Y4Lj4d0mCqBKrfURwG_y-18" value="" style="ellipse;shape=cloud;whiteSpace=wrap;html=1;" parent="Y4Lj4d0mCqBKrfURwG_y-35" vertex="1">
          <mxGeometry as="geometry" />
        </mxCell>
        <mxCell id="Y4Lj4d0mCqBKrfURwG_y-20" value="" style="ellipse;shape=cloud;whiteSpace=wrap;html=1;" parent="Y4Lj4d0mCqBKrfURwG_y-35" vertex="1">
          <mxGeometry as="geometry" />
        </mxCell>
        <mxCell id="Y4Lj4d0mCqBKrfURwG_y-21" value="" style="shape=offPageConnector;whiteSpace=wrap;html=1;rotation=-180;" parent="Y4Lj4d0mCqBKrfURwG_y-35" vertex="1">
          <mxGeometry as="geometry" />
        </mxCell>
        <mxCell id="Y4Lj4d0mCqBKrfURwG_y-23" value="" style="rounded=0;whiteSpace=wrap;html=1;" parent="Y4Lj4d0mCqBKrfURwG_y-35" vertex="1">
          <mxGeometry as="geometry" />
        </mxCell>
        <mxCell id="Y4Lj4d0mCqBKrfURwG_y-24" value="" style="whiteSpace=wrap;html=1;aspect=fixed;" parent="Y4Lj4d0mCqBKrfURwG_y-35" vertex="1">
          <mxGeometry as="geometry" />
        </mxCell>
        <mxCell id="Y4Lj4d0mCqBKrfURwG_y-25" value="" style="endArrow=none;html=1;rounded=0;fontSize=12;startSize=8;endSize=8;curved=1;entryX=-0.001;entryY=0.559;entryDx=0;entryDy=0;entryPerimeter=0;" parent="Y4Lj4d0mCqBKrfURwG_y-35" edge="1">
          <mxGeometry width="50" height="50" relative="1" as="geometry">
            <mxPoint as="sourcePoint" />
            <mxPoint as="targetPoint" />
            <Array as="points" />
          </mxGeometry>
        </mxCell>
        <mxCell id="Y4Lj4d0mCqBKrfURwG_y-27" value="" style="verticalLabelPosition=bottom;verticalAlign=top;html=1;shape=mxgraph.basic.smiley" parent="Y4Lj4d0mCqBKrfURwG_y-35" vertex="1">
          <mxGeometry as="geometry" />
        </mxCell>
        <mxCell id="Y4Lj4d0mCqBKrfURwG_y-28" value="" style="verticalLabelPosition=bottom;verticalAlign=top;html=1;shape=mxgraph.basic.sun" parent="Y4Lj4d0mCqBKrfURwG_y-35" vertex="1">
          <mxGeometry width="13.49707567846944" as="geometry" />
        </mxCell>
        <mxCell id="Y4Lj4d0mCqBKrfURwG_y-19" value="" style="shape=umlActor;verticalLabelPosition=bottom;verticalAlign=top;html=1;outlineConnect=0;fontSize=3;" parent="Y4Lj4d0mCqBKrfURwG_y-34" vertex="1">
          <mxGeometry x="61.56999999999999" y="25.76" width="3.06" height="5" as="geometry" />
        </mxCell>
        <mxCell id="vtyGRnQgsWWQ4yg0oaad-54" style="edgeStyle=none;curved=1;rounded=0;orthogonalLoop=1;jettySize=auto;html=1;exitX=1;exitY=0.5;exitDx=0;exitDy=0;entryX=0;entryY=0.5;entryDx=0;entryDy=0;fontSize=12;startSize=8;endSize=8;" parent="1" source="vtyGRnQgsWWQ4yg0oaad-6" target="Y4Lj4d0mCqBKrfURwG_y-65" edge="1">
          <mxGeometry relative="1" as="geometry" />
        </mxCell>
        <mxCell id="vtyGRnQgsWWQ4yg0oaad-6" value="&lt;font style=&quot;font-size: 22px;&quot;&gt;Coordonnées&lt;/font&gt;&lt;div&gt;&lt;font style=&quot;font-size: 22px;&quot;&gt;d&#39;étoiles&lt;/font&gt;&lt;/div&gt;" style="rounded=1;whiteSpace=wrap;html=1;absoluteArcSize=1;arcSize=14;strokeWidth=2;fontSize=12;fontStyle=1;strokeColor=light-dark(#8126ab, #9577a3);align=center;verticalAlign=middle;fontFamily=Helvetica;fontColor=default;fillColor=#CC99FF;" parent="1" vertex="1">
          <mxGeometry x="835" y="1203.29" width="156.67" height="115.57" as="geometry" />
        </mxCell>
        <mxCell id="vtyGRnQgsWWQ4yg0oaad-7" value="" style="strokeWidth=2;html=1;shape=mxgraph.flowchart.annotation_2;align=left;labelPosition=right;pointerEvents=1;rotation=90;" parent="1" vertex="1">
          <mxGeometry x="842.3499999999999" y="910" width="141.96" height="955" as="geometry" />
        </mxCell>
        <mxCell id="Y4Lj4d0mCqBKrfURwG_y-61" value="" style="edgeStyle=none;curved=1;rounded=0;orthogonalLoop=1;jettySize=auto;html=1;fontSize=12;startSize=8;endSize=8;" parent="1" source="vtyGRnQgsWWQ4yg0oaad-35" target="Y4Lj4d0mCqBKrfURwG_y-60" edge="1">
          <mxGeometry relative="1" as="geometry" />
        </mxCell>
        <mxCell id="rVA7DmSS4Ny5QIhH6Kqi-3" style="edgeStyle=orthogonalEdgeStyle;rounded=0;orthogonalLoop=1;jettySize=auto;html=1;exitX=0.5;exitY=1;exitDx=0;exitDy=0;entryX=0.5;entryY=0;entryDx=0;entryDy=0;" parent="1" source="vtyGRnQgsWWQ4yg0oaad-35" target="Y4Lj4d0mCqBKrfURwG_y-31" edge="1">
          <mxGeometry relative="1" as="geometry" />
        </mxCell>
        <mxCell id="vtyGRnQgsWWQ4yg0oaad-35" value="&lt;font style=&quot;font-size: 22px;&quot;&gt;Coordonnées étoiles catalogue&lt;/font&gt;" style="rounded=1;whiteSpace=wrap;html=1;align=center;strokeWidth=2;pointerEvents=1;strokeColor=light-dark(#8126ab, #9577a3);verticalAlign=middle;arcSize=14;fontFamily=Helvetica;fontSize=12;fontColor=default;fillColor=#CC99FF;" parent="1" vertex="1">
          <mxGeometry x="358.9956649263277" y="1461.271874862609" width="193.11297344137665" height="173.34832335743042" as="geometry" />
        </mxCell>
        <mxCell id="Y4Lj4d0mCqBKrfURwG_y-60" value="&lt;font style=&quot;font-size: 20px;&quot;&gt;Fichier json catalogue des coordonnées pour chaque&amp;nbsp;⭐ dans chaque base&lt;/font&gt;&lt;div&gt;&lt;font style=&quot;font-size: 20px;&quot;&gt;&amp;nbsp;&lt;/font&gt;&lt;/div&gt;" style="text;html=1;align=center;verticalAlign=middle;whiteSpace=wrap;rounded=0;" parent="1" vertex="1">
          <mxGeometry x="714.9996325665331" y="1524.0027229504383" width="175.46198382010272" height="56.526627181770785" as="geometry" />
        </mxCell>
        <mxCell id="vtyGRnQgsWWQ4yg0oaad-60" style="edgeStyle=none;curved=1;rounded=0;orthogonalLoop=1;jettySize=auto;html=1;exitX=1;exitY=0.5;exitDx=0;exitDy=0;fontSize=12;startSize=8;endSize=8;" parent="1" source="Y4Lj4d0mCqBKrfURwG_y-65" edge="1">
          <mxGeometry relative="1" as="geometry">
            <mxPoint x="2655.4385302661326" y="1263.848125514235" as="targetPoint" />
          </mxGeometry>
        </mxCell>
        <mxCell id="Y4Lj4d0mCqBKrfURwG_y-65" value="&lt;font style=&quot;font-size: 20px;&quot;&gt;2 fichiers json (catalogue, observées) avec differentes coordonées de chaque étoiles dans chaque vues&amp;nbsp;&lt;/font&gt;" style="text;html=1;align=center;verticalAlign=middle;whiteSpace=wrap;rounded=0;" parent="1" vertex="1">
          <mxGeometry x="1823" y="1232.82" width="285" height="56.53" as="geometry" />
        </mxCell>
        <mxCell id="Y4Lj4d0mCqBKrfURwG_y-84" style="edgeStyle=none;rounded=0;orthogonalLoop=1;jettySize=auto;html=1;exitX=0.25;exitY=1;exitDx=0;exitDy=0;entryX=0.5;entryY=0;entryDx=0;entryDy=0;fontSize=12;startSize=8;endSize=8;strokeColor=light-dark(#457ec9, #7f6a19);strokeWidth=2;align=center;verticalAlign=middle;arcSize=14;absoluteArcSize=1;fontFamily=Helvetica;fontColor=default;fontStyle=0;fillColor=light-dark(#c3ddf9, #281d00);gradientColor=none;curved=1;" parent="1" source="Y4Lj4d0mCqBKrfURwG_y-66" target="Y4Lj4d0mCqBKrfURwG_y-67" edge="1">
          <mxGeometry relative="1" as="geometry">
            <Array as="points" />
          </mxGeometry>
        </mxCell>
        <mxCell id="ku5wXdFB79pIFWUU4cIJ-10" style="edgeStyle=none;rounded=1;orthogonalLoop=1;jettySize=auto;html=1;exitX=0.75;exitY=1;exitDx=0;exitDy=0;entryX=0.5;entryY=0;entryDx=0;entryDy=0;fontSize=14;startSize=8;endSize=8;strokeColor=light-dark(#FFD3D1,#BABDC0);strokeWidth=2;align=center;verticalAlign=middle;arcSize=14;absoluteArcSize=1;fontFamily=Helvetica;fontColor=default;fontStyle=1;fillColor=#FFECEA;" parent="1" source="Y4Lj4d0mCqBKrfURwG_y-66" target="vtyGRnQgsWWQ4yg0oaad-70" edge="1">
          <mxGeometry relative="1" as="geometry" />
        </mxCell>
        <mxCell id="Y4Lj4d0mCqBKrfURwG_y-66" value="&lt;font style=&quot;font-size: 22px;&quot;&gt;Comparaison&amp;nbsp;&lt;/font&gt;&lt;div&gt;&lt;font style=&quot;font-size: 22px;&quot;&gt;des &lt;br&gt;&lt;/font&gt;&lt;/div&gt;" style="rounded=1;whiteSpace=wrap;html=1;absoluteArcSize=1;arcSize=14;strokeWidth=2;fontSize=12;fontStyle=1;strokeColor=light-dark(#8126ab, #9577a3);align=center;verticalAlign=middle;fontFamily=Helvetica;fontColor=default;fillColor=#CC99FF;" parent="1" vertex="1">
          <mxGeometry x="2625" y="1203.29" width="175.27" height="115.57" as="geometry" />
        </mxCell>
        <mxCell id="uxtLRJ9bp2ce0IZGOA4o-37" style="edgeStyle=orthogonalEdgeStyle;rounded=0;orthogonalLoop=1;jettySize=auto;html=1;exitX=0.5;exitY=1;exitDx=0;exitDy=0;entryX=0.5;entryY=0;entryDx=0;entryDy=0;" parent="1" source="Y4Lj4d0mCqBKrfURwG_y-4" target="vtyGRnQgsWWQ4yg0oaad-8" edge="1">
          <mxGeometry relative="1" as="geometry" />
        </mxCell>
        <mxCell id="sPmx9xp8ERYwyldhlcMQ-22" value="" style="edgeStyle=orthogonalEdgeStyle;rounded=0;orthogonalLoop=1;jettySize=auto;html=1;" parent="1" source="Y4Lj4d0mCqBKrfURwG_y-4" target="Y4Lj4d0mCqBKrfURwG_y-5" edge="1">
          <mxGeometry relative="1" as="geometry" />
        </mxCell>
        <mxCell id="Y4Lj4d0mCqBKrfURwG_y-4" value="&lt;font style=&quot;font-size: 22px;&quot;&gt;coordonnées étoiles observées&lt;/font&gt;&lt;div&gt;&lt;font style=&quot;font-size: 22px;&quot;&gt;Création des vues&amp;nbsp;&lt;/font&gt;&lt;/div&gt;" style="rounded=1;whiteSpace=wrap;html=1;absoluteArcSize=1;arcSize=14;strokeWidth=2;strokeColor=light-dark(#457ec9, #7f6a19);align=center;verticalAlign=middle;fontFamily=Helvetica;fontSize=12;fontColor=default;fontStyle=0;fillColor=light-dark(#c3ddf9, #281d00);gradientColor=none;" parent="1" vertex="1">
          <mxGeometry x="1318" y="1456.65" width="167.2" height="139.03" as="geometry" />
        </mxCell>
        <mxCell id="Y4Lj4d0mCqBKrfURwG_y-5" value="&lt;font style=&quot;font-size: 20px;&quot;&gt;fichier json coordonnées pour chaque etoiles dans chaque base&lt;/font&gt;&lt;div&gt;&lt;font style=&quot;font-size: 20px;&quot;&gt;&amp;nbsp;&lt;/font&gt;&lt;/div&gt;" style="text;html=1;align=center;verticalAlign=middle;whiteSpace=wrap;rounded=0;" parent="1" vertex="1">
          <mxGeometry x="1574.0024759885773" y="1493.1390523624984" width="175.46198382010272" height="66.04194275736886" as="geometry" />
        </mxCell>
        <mxCell id="ku5wXdFB79pIFWUU4cIJ-5" value="" style="edgeStyle=none;rounded=1;orthogonalLoop=1;jettySize=auto;html=1;fontSize=14;startSize=8;endSize=8;strokeColor=light-dark(#FFD3D1,#BABDC0);strokeWidth=2;align=center;verticalAlign=middle;arcSize=14;absoluteArcSize=1;fontFamily=Helvetica;fontColor=default;fontStyle=0;fillColor=#FFECEA;entryX=0;entryY=0.5;entryDx=0;entryDy=0;" parent="1" source="Y4Lj4d0mCqBKrfURwG_y-85" target="jSAXyjk_ZXR4QeWLhcXr-4" edge="1">
          <mxGeometry relative="1" as="geometry">
            <mxPoint x="2960" y="1544.846939997563" as="targetPoint" />
          </mxGeometry>
        </mxCell>
        <mxCell id="Y4Lj4d0mCqBKrfURwG_y-85" value="&lt;font style=&quot;font-size: 22px;&quot;&gt;Calcul des s&lt;/font&gt;" style="rounded=1;whiteSpace=wrap;html=1;absoluteArcSize=1;arcSize=14;strokeWidth=2;strokeColor=light-dark(#FFD3D1,#BABDC0);align=center;verticalAlign=middle;fontFamily=Helvetica;fontSize=14;fontColor=default;fontStyle=0;fillColor=#FFECEA;" parent="1" vertex="1">
          <mxGeometry x="2738.0021540655616" y="1490.15900111169" width="144.83473008103255" height="115.56554890495362" as="geometry" />
        </mxCell>
        <mxCell id="vtyGRnQgsWWQ4yg0oaad-65" value="&lt;font style=&quot;font-size: 20px;&quot;&gt;Tri des étoiles du catalogue&lt;br&gt;&lt;/font&gt;&lt;div&gt;&lt;font style=&quot;font-size: 20px;&quot;&gt;&amp;nbsp;éligibles ou non&lt;/font&gt;&lt;/div&gt;" style="rounded=1;whiteSpace=wrap;html=1;absoluteArcSize=1;arcSize=14;strokeWidth=2;strokeColor=light-dark(#FFD3D1,#BABDC0);align=center;verticalAlign=middle;fontFamily=Helvetica;fontSize=14;fontColor=default;fontStyle=0;fillColor=#FFECEA;" parent="1" vertex="1">
          <mxGeometry x="2672.997124527438" y="1706.0043617829751" width="121.47368110622497" height="169.5798815453123" as="geometry" />
        </mxCell>
        <mxCell id="Y4Lj4d0mCqBKrfURwG_y-109" style="edgeStyle=none;rounded=1;orthogonalLoop=1;jettySize=auto;html=1;entryX=0.5;entryY=1;entryDx=0;entryDy=0;fontSize=14;startSize=8;endSize=8;strokeColor=light-dark(#FFD3D1,#BABDC0);strokeWidth=2;align=center;verticalAlign=middle;arcSize=14;fontFamily=Helvetica;fontColor=default;fontStyle=0;fillColor=#FFECEA;exitX=0.5;exitY=1;exitDx=0;exitDy=0;" parent="1" edge="1">
          <mxGeometry relative="1" as="geometry">
            <mxPoint x="2814.419519106078" y="1605.7245500166432" as="sourcePoint" />
            <mxPoint x="2742" y="1706" as="targetPoint" />
          </mxGeometry>
        </mxCell>
        <mxCell id="vtyGRnQgsWWQ4yg0oaad-70" value="&lt;font style=&quot;font-size: 22px; font-weight: normal;&quot;&gt;Identification des autres étoiles&lt;/font&gt;" style="rounded=1;whiteSpace=wrap;html=1;absoluteArcSize=1;arcSize=14;strokeWidth=2;fontSize=14;fontStyle=1;strokeColor=light-dark(#FFD3D1,#BABDC0);fillColor=#FFECEA;" parent="1" vertex="1">
          <mxGeometry x="3247.996924885638" y="1484.389265593498" width="161.9649081416333" height="127.12838453180251" as="geometry" />
        </mxCell>
        <mxCell id="X_0OvHiyyq__KpYY6KHa-24" value="" style="edgeStyle=orthogonalEdgeStyle;rounded=0;orthogonalLoop=1;jettySize=auto;html=1;strokeColor=light-dark(#FFD3D1,#BABDC0);exitX=1;exitY=0.5;exitDx=0;exitDy=0;" parent="1" source="X_0OvHiyyq__KpYY6KHa-25" target="X_0OvHiyyq__KpYY6KHa-18" edge="1">
          <mxGeometry relative="1" as="geometry">
            <mxPoint x="3391.60183302727" y="1914.25" as="sourcePoint" />
            <Array as="points">
              <mxPoint x="3487" y="2285" />
              <mxPoint x="3636" y="2285" />
            </Array>
          </mxGeometry>
        </mxCell>
        <mxCell id="X_0OvHiyyq__KpYY6KHa-26" value="" style="edgeStyle=orthogonalEdgeStyle;rounded=0;orthogonalLoop=1;jettySize=auto;html=1;strokeColor=light-dark(#FFD3D1,#BABDC0);exitX=0.5;exitY=1;exitDx=0;exitDy=0;" parent="1" source="vtyGRnQgsWWQ4yg0oaad-70" target="X_0OvHiyyq__KpYY6KHa-25" edge="1">
          <mxGeometry relative="1" as="geometry">
            <mxPoint x="3310.619378956453" y="1970.8724072806294" as="sourcePoint" />
          </mxGeometry>
        </mxCell>
        <mxCell id="X_0OvHiyyq__KpYY6KHa-1" value="" style="rounded=0;whiteSpace=wrap;html=1;" parent="1" vertex="1">
          <mxGeometry x="2628.444378909193" y="171" width="242.94736221244995" height="169.5798815453123" as="geometry" />
        </mxCell>
        <mxCell id="X_0OvHiyyq__KpYY6KHa-2" value="" style="html=1;verticalLabelPosition=bottom;labelBackgroundColor=#ffffff;verticalAlign=top;shadow=0;dashed=0;strokeWidth=2;shape=mxgraph.ios7.misc.star;fillColor=#0080f0;strokeColor=none;sketch=0;" parent="1" vertex="1">
          <mxGeometry x="2652.99555956833" y="229.41084808782978" width="16.19649081416333" height="22.610650872708312" as="geometry" />
        </mxCell>
        <mxCell id="X_0OvHiyyq__KpYY6KHa-3" value="" style="html=1;verticalLabelPosition=bottom;labelBackgroundColor=#ffffff;verticalAlign=top;shadow=0;dashed=0;strokeWidth=2;shape=mxgraph.ios7.misc.star;fillColor=#0080f0;strokeColor=none;sketch=0;" parent="1" vertex="1">
          <mxGeometry x="2696.604611085464" y="285.93747526960067" width="16.19649081416333" height="22.610650872708312" as="geometry" />
        </mxCell>
        <mxCell id="X_0OvHiyyq__KpYY6KHa-4" value="" style="html=1;verticalLabelPosition=bottom;labelBackgroundColor=#ffffff;verticalAlign=top;shadow=0;dashed=0;strokeWidth=2;shape=mxgraph.ios7.misc.star;fillColor=#0080f0;strokeColor=none;sketch=0;" parent="1" vertex="1">
          <mxGeometry x="2750.1745044533095" y="206.80019721512156" width="16.19649081416333" height="22.610650872708312" as="geometry" />
        </mxCell>
        <mxCell id="X_0OvHiyyq__KpYY6KHa-5" value="" style="html=1;verticalLabelPosition=bottom;labelBackgroundColor=#ffffff;verticalAlign=top;shadow=0;dashed=0;strokeWidth=2;shape=mxgraph.ios7.misc.star;fillColor=#0080f0;strokeColor=none;sketch=0;" parent="1" vertex="1">
          <mxGeometry x="2797.832678673985" y="285.93747526960067" width="16.19649081416333" height="22.610650872708312" as="geometry" />
        </mxCell>
        <mxCell id="X_0OvHiyyq__KpYY6KHa-6" value="" style="html=1;verticalLabelPosition=bottom;labelBackgroundColor=#ffffff;verticalAlign=top;shadow=0;dashed=0;strokeWidth=2;shape=mxgraph.ios7.misc.star;fillColor=#0080f0;strokeColor=none;sketch=0;" parent="1" vertex="1">
          <mxGeometry x="2831.1569585241264" y="184.18954634241317" width="16.19649081416333" height="22.610650872708312" as="geometry" />
        </mxCell>
        <mxCell id="rVA7DmSS4Ny5QIhH6Kqi-25" value="" style="edgeStyle=none;curved=1;rounded=0;orthogonalLoop=1;jettySize=auto;html=1;entryX=0;entryY=0.5;entryDx=0;entryDy=0;fontSize=12;startSize=8;endSize=8;" parent="1" source="Y4Lj4d0mCqBKrfURwG_y-66" target="Y4Lj4d0mCqBKrfURwG_y-114" edge="1">
          <mxGeometry relative="1" as="geometry">
            <mxPoint x="2799.8572400257563" y="1261.963904608176" as="sourcePoint" />
            <mxPoint x="3559.7426007235854" y="1261.963904608176" as="targetPoint" />
          </mxGeometry>
        </mxCell>
        <mxCell id="JqaUWuuIqeqrYsrJ6V1h-10" style="edgeStyle=orthogonalEdgeStyle;rounded=0;orthogonalLoop=1;jettySize=auto;html=1;" parent="1" source="Y4Lj4d0mCqBKrfURwG_y-114" target="vtyGRnQgsWWQ4yg0oaad-72" edge="1">
          <mxGeometry relative="1" as="geometry" />
        </mxCell>
        <mxCell id="Y4Lj4d0mCqBKrfURwG_y-114" value="&lt;font style=&quot;font-size: 20px;&quot;&gt;fichier Json&amp;nbsp;&lt;/font&gt;&lt;font style=&quot;font-size: 20px;&quot;&gt; &lt;br&gt;&lt;/font&gt;" style="text;html=1;align=center;verticalAlign=middle;resizable=0;points=[];autosize=1;strokeColor=none;fillColor=none;fontSize=16;" parent="1" vertex="1">
          <mxGeometry x="3170.003552136632" y="1246.5005890702623" width="125" height="36" as="geometry" />
        </mxCell>
        <mxCell id="X_0OvHiyyq__KpYY6KHa-19" value="" style="edgeStyle=orthogonalEdgeStyle;rounded=0;orthogonalLoop=1;jettySize=auto;html=1;entryX=-0.002;entryY=0.464;entryDx=0;entryDy=0;strokeColor=light-dark(#FFD3D1,#BABDC0);entryPerimeter=0;" parent="1" source="X_0OvHiyyq__KpYY6KHa-16" target="X_0OvHiyyq__KpYY6KHa-25" edge="1">
          <mxGeometry relative="1" as="geometry">
            <mxPoint x="2999" y="2286" as="sourcePoint" />
            <mxPoint x="3087.3269248856373" y="2285.5157800988586" as="targetPoint" />
          </mxGeometry>
        </mxCell>
        <mxCell id="X_0OvHiyyq__KpYY6KHa-16" value="&lt;font style=&quot;font-size: 20px;&quot;&gt;Fichiers json&amp;nbsp; :&lt;/font&gt;&lt;div&gt;&lt;font style=&quot;font-size: 20px;&quot;&gt;différentes cordonnée de chaque&amp;nbsp;⭐ pour chaque vues&lt;/font&gt;&lt;/div&gt;&lt;div&gt;&lt;font style=&quot;font-size: 20px;&quot;&gt;pour observées et&amp;nbsp; catalogue&lt;/font&gt;&lt;/div&gt;&lt;div&gt;&lt;div&gt;&lt;br&gt;&lt;/div&gt;&lt;/div&gt;" style="text;html=1;align=center;verticalAlign=middle;whiteSpace=wrap;rounded=0;" parent="1" vertex="1">
          <mxGeometry x="2814.025995295829" y="2257.997186418535" width="175.46198382010272" height="56.526627181770785" as="geometry" />
        </mxCell>
        <mxCell id="X_0OvHiyyq__KpYY6KHa-18" value="&lt;font style=&quot;font-size: 20px;&quot;&gt;Tableau indice: vues et r (résultat de cohérence) dans les cases&lt;/font&gt;" style="text;html=1;align=center;verticalAlign=middle;whiteSpace=wrap;rounded=0;" parent="1" vertex="1">
          <mxGeometry x="3665" y="2255" width="164" height="66.95" as="geometry" />
        </mxCell>
        <mxCell id="X_0OvHiyyq__KpYY6KHa-25" value="&lt;div&gt;&lt;span&gt;&lt;font style=&quot;font-size: 22px;&quot;&gt;On prend l&#39;étoile x de match x&#39;&lt;/font&gt;&lt;/span&gt;&lt;/div&gt;&lt;div&gt;&lt;i&gt;&lt;font style=&quot;font-size: 22px;&quot;&gt;On ne touche pas à sa vue 0&lt;/font&gt;&lt;/i&gt;&lt;/div&gt;&lt;div&gt;&lt;font style=&quot;font-size: 22px;&quot;&gt;pour chaque étoile n on prend ses coordonnées de vue x et&amp;nbsp; cherche dans le catalogue l&#39;étoile avec les coordonne de vue x&#39; proche a 0.1unit&amp;nbsp;&lt;/font&gt;&lt;/div&gt;&lt;div&gt;&lt;font style=&quot;font-size: 22px;&quot;&gt;si on en trouve on associe le nom de l&#39;étoile trouvée a la vue de l&#39;étoile n&amp;nbsp;&lt;/font&gt;&lt;/div&gt;&lt;div&gt;&lt;font style=&quot;font-size: 22px;&quot;&gt;Si on en trouve pas on marque -1&lt;/font&gt;&lt;/div&gt;" style="whiteSpace=wrap;html=1;rounded=1;arcSize=14;strokeWidth=2;strokeColor=light-dark(#FFD3D1,#BABDC0);align=center;verticalAlign=middle;fontFamily=Helvetica;fontSize=14;fontColor=default;fontStyle=0;fillColor=#FFECEA;" parent="1" vertex="1">
          <mxGeometry x="3152.36" y="2124" width="353.23" height="348.52" as="geometry" />
        </mxCell>
        <mxCell id="eIgzOIId9O11CtZWAf4E-16" style="edgeStyle=orthogonalEdgeStyle;rounded=0;orthogonalLoop=1;jettySize=auto;html=1;exitX=0.5;exitY=1;exitDx=0;exitDy=0;entryX=0.5;entryY=0;entryDx=0;entryDy=0;" parent="1" source="vtyGRnQgsWWQ4yg0oaad-8" target="eIgzOIId9O11CtZWAf4E-9" edge="1">
          <mxGeometry relative="1" as="geometry">
            <Array as="points">
              <mxPoint x="1373" y="1971" />
            </Array>
          </mxGeometry>
        </mxCell>
        <mxCell id="vtyGRnQgsWWQ4yg0oaad-8" value="&lt;font style=&quot;font-size: 22px;&quot;&gt;analyse de l&#39;image&lt;/font&gt;" style="rounded=1;whiteSpace=wrap;html=1;absoluteArcSize=1;arcSize=14;strokeWidth=2;fillColor=light-dark(#c3ddf9, #281d00);strokeColor=light-dark(#457ec9, #7f6a19);align=center;verticalAlign=middle;fontFamily=Helvetica;fontSize=12;fontColor=default;fontStyle=0;gradientColor=none;" parent="1" vertex="1">
          <mxGeometry x="1305.7309624191885" y="1734.9033520289918" width="134.9707567846944" height="94.2110453029513" as="geometry" />
        </mxCell>
        <mxCell id="vtyGRnQgsWWQ4yg0oaad-13" style="edgeStyle=none;curved=1;rounded=0;orthogonalLoop=1;jettySize=auto;html=1;exitX=1;exitY=0.5;exitDx=0;exitDy=0;fontSize=12;startSize=8;endSize=8;" parent="1" source="vtyGRnQgsWWQ4yg0oaad-8" target="Y4Lj4d0mCqBKrfURwG_y-2" edge="1">
          <mxGeometry relative="1" as="geometry">
            <mxPoint x="1121.59035893783" y="1576.4798527436499" as="targetPoint" />
          </mxGeometry>
        </mxCell>
        <mxCell id="uxtLRJ9bp2ce0IZGOA4o-38" style="edgeStyle=orthogonalEdgeStyle;rounded=1;orthogonalLoop=1;jettySize=auto;html=1;entryX=0.75;entryY=0;entryDx=0;entryDy=0;exitX=1;exitY=0.5;exitDx=0;exitDy=0;strokeColor=light-dark(#8126ab, #9577a3);strokeWidth=2;align=center;verticalAlign=middle;arcSize=14;absoluteArcSize=1;fontFamily=Helvetica;fontSize=12;fontColor=default;fontStyle=1;fillColor=#CC99FF;" parent="1" source="Y4Lj4d0mCqBKrfURwG_y-2" target="Y4Lj4d0mCqBKrfURwG_y-6" edge="1">
          <mxGeometry relative="1" as="geometry">
            <mxPoint x="1589.169551667047" y="1791.4299792107627" as="sourcePoint" />
            <Array as="points">
              <mxPoint x="1656.6549300593942" y="1782.008874680467" />
              <mxPoint x="1656.6549300593942" y="2205.9585785437484" />
              <mxPoint x="910.2666450400338" y="2205.9585785437484" />
            </Array>
          </mxGeometry>
        </mxCell>
        <mxCell id="Y4Lj4d0mCqBKrfURwG_y-2" value="&lt;font style=&quot;font-size: 20px;&quot;&gt;liste étoiles/ coordonnées&lt;/font&gt;" style="text;html=1;align=center;verticalAlign=middle;whiteSpace=wrap;rounded=0;fontFamily=Helvetica;fontSize=12;fontColor=default;fontStyle=0;" parent="1" vertex="1">
          <mxGeometry x="1508.19" y="1744.32" width="116.81" height="75.37" as="geometry" />
        </mxCell>
        <mxCell id="uxtLRJ9bp2ce0IZGOA4o-30" style="edgeStyle=orthogonalEdgeStyle;rounded=0;orthogonalLoop=1;jettySize=auto;html=1;exitX=0.5;exitY=1;exitDx=0;exitDy=0;strokeColor=light-dark(#FFD3D1,#BABDC0);strokeWidth=2;align=center;verticalAlign=middle;arcSize=14;fontFamily=Helvetica;fontSize=14;fontColor=default;fontStyle=0;fillColor=#FFECEA;curved=0;" parent="1" source="vtyGRnQgsWWQ4yg0oaad-23" target="uxtLRJ9bp2ce0IZGOA4o-31" edge="1">
          <mxGeometry relative="1" as="geometry">
            <mxPoint x="644.3742541741859" y="2944.893491272917" as="targetPoint" />
          </mxGeometry>
        </mxCell>
        <mxCell id="vtyGRnQgsWWQ4yg0oaad-23" value="&lt;font style=&quot;font-size: 22px;&quot;&gt;rotation +translation des coordonées&amp;nbsp;&lt;/font&gt;" style="whiteSpace=wrap;html=1;rounded=1;arcSize=14;strokeWidth=2;strokeColor=light-dark(#FFD3D1,#BABDC0);align=center;verticalAlign=middle;fontFamily=Helvetica;fontSize=14;fontColor=default;fontStyle=0;fillColor=#FFECEA;" parent="1" vertex="1">
          <mxGeometry x="675.5255048400933" y="2647.7895388055294" width="161.9649081416333" height="113.05325436354157" as="geometry" />
        </mxCell>
        <mxCell id="vtyGRnQgsWWQ4yg0oaad-24" value="" style="edgeStyle=none;rounded=1;orthogonalLoop=1;jettySize=auto;html=1;fontSize=14;startSize=8;endSize=8;strokeColor=light-dark(#FFD3D1,#BABDC0);strokeWidth=2;align=center;verticalAlign=middle;arcSize=14;fontFamily=Helvetica;fontColor=default;fontStyle=0;fillColor=#FFECEA;" parent="1" source="Y4Lj4d0mCqBKrfURwG_y-6" target="vtyGRnQgsWWQ4yg0oaad-23" edge="1">
          <mxGeometry relative="1" as="geometry" />
        </mxCell>
        <mxCell id="uxtLRJ9bp2ce0IZGOA4o-17" value="" style="edgeStyle=orthogonalEdgeStyle;rounded=1;orthogonalLoop=1;jettySize=auto;html=1;strokeColor=light-dark(#FFD3D1,#BABDC0);strokeWidth=2;align=center;verticalAlign=middle;arcSize=14;fontFamily=Helvetica;fontSize=14;fontColor=default;fontStyle=0;fillColor=#FFECEA;" parent="1" source="Y4Lj4d0mCqBKrfURwG_y-6" target="uxtLRJ9bp2ce0IZGOA4o-16" edge="1">
          <mxGeometry relative="1" as="geometry" />
        </mxCell>
        <mxCell id="Y4Lj4d0mCqBKrfURwG_y-6" value="&lt;div&gt;&lt;font style=&quot;font-size: 22px;&quot;&gt;Changement de base&amp;nbsp;&lt;/font&gt;&lt;/div&gt;" style="rounded=1;whiteSpace=wrap;html=1;absoluteArcSize=1;arcSize=14;strokeWidth=2;strokeColor=light-dark(#FFD3D1,#BABDC0);align=center;verticalAlign=middle;fontFamily=Helvetica;fontSize=14;fontColor=default;fontStyle=0;fillColor=#FFECEA;" parent="1" vertex="1">
          <mxGeometry x="808.002051191601" y="2432.0009886507087" width="137.46771578521125" height="110.64145160378601" as="geometry" />
        </mxCell>
        <mxCell id="Y4Lj4d0mCqBKrfURwG_y-10" value="" style="edgeStyle=none;rounded=1;orthogonalLoop=1;jettySize=auto;html=1;fontSize=14;startSize=8;endSize=8;strokeColor=light-dark(#FFD3D1,#BABDC0);strokeWidth=2;align=center;verticalAlign=middle;arcSize=14;fontFamily=Helvetica;fontColor=default;fontStyle=0;fillColor=#FFECEA;" parent="1" source="Y4Lj4d0mCqBKrfURwG_y-7" target="Y4Lj4d0mCqBKrfURwG_y-8" edge="1">
          <mxGeometry relative="1" as="geometry" />
        </mxCell>
        <mxCell id="Y4Lj4d0mCqBKrfURwG_y-7" value="&lt;font style=&quot;font-size: 22px;&quot;&gt;Recherche des l&#39;étoiles la plus proches&amp;nbsp;&lt;/font&gt;" style="rounded=1;whiteSpace=wrap;html=1;absoluteArcSize=1;arcSize=14;strokeWidth=2;strokeColor=light-dark(#FFD3D1,#BABDC0);align=center;verticalAlign=middle;fontFamily=Helvetica;fontSize=14;fontColor=default;fontStyle=0;fillColor=#FFECEA;" parent="1" vertex="1">
          <mxGeometry x="411.0029234515082" y="2421.026896192517" width="137.47021524367025" height="126.85655832417544" as="geometry" />
        </mxCell>
        <mxCell id="Y4Lj4d0mCqBKrfURwG_y-9" value="" style="edgeStyle=none;rounded=1;orthogonalLoop=1;jettySize=auto;html=1;fontSize=14;startSize=8;endSize=8;entryX=0;entryY=0.5;entryDx=0;entryDy=0;strokeColor=light-dark(#FFD3D1,#BABDC0);strokeWidth=2;align=center;verticalAlign=middle;arcSize=14;fontFamily=Helvetica;fontColor=default;fontStyle=0;fillColor=#FFECEA;" parent="1" source="Y4Lj4d0mCqBKrfURwG_y-8" edge="1">
          <mxGeometry relative="1" as="geometry">
            <mxPoint x="804.7465073857597" y="2484.4841128773933" as="targetPoint" />
          </mxGeometry>
        </mxCell>
        <mxCell id="Y4Lj4d0mCqBKrfURwG_y-8" value="&lt;font style=&quot;font-size: 20px;&quot;&gt;&amp;nbsp;⭐&amp;nbsp; auxiliaire la plus proche M&#39;&lt;/font&gt;" style="text;html=1;align=center;verticalAlign=middle;whiteSpace=wrap;rounded=0;fontFamily=Helvetica;fontSize=14;fontColor=default;fontStyle=0;" parent="1" vertex="1">
          <mxGeometry x="618" y="2452" width="119.51" height="64.92" as="geometry" />
        </mxCell>
        <mxCell id="Y4Lj4d0mCqBKrfURwG_y-14" value="&lt;font style=&quot;font-size: 21px;&quot;&gt;A répéter pour chaque étoile&amp;nbsp; x de la liste&lt;/font&gt;&lt;div&gt;&lt;font style=&quot;font-size: 21px;&quot;&gt;On écrit les nouvelles coordonnées de chaque étoile a sa vue n°x&amp;nbsp;&lt;/font&gt;&lt;/div&gt;" style="text;html=1;align=center;verticalAlign=middle;whiteSpace=wrap;rounded=0;fillColor=none;strokeColor=none;fontColor=default;fontFamily=Helvetica;fontSize=14;fontStyle=0;" parent="1" vertex="1">
          <mxGeometry x="711.86" y="3062" width="447.14" height="64.93" as="geometry" />
        </mxCell>
        <mxCell id="Y4Lj4d0mCqBKrfURwG_y-15" style="edgeStyle=none;rounded=1;orthogonalLoop=1;jettySize=auto;html=1;exitX=0.5;exitY=0;exitDx=0;exitDy=0;fontSize=14;startSize=8;endSize=8;strokeColor=light-dark(#FFD3D1,#BABDC0);strokeWidth=2;align=center;verticalAlign=middle;arcSize=14;fontFamily=Helvetica;fontColor=default;fontStyle=0;fillColor=#FFECEA;" parent="1" source="Y4Lj4d0mCqBKrfURwG_y-14" target="Y4Lj4d0mCqBKrfURwG_y-14" edge="1">
          <mxGeometry relative="1" as="geometry" />
        </mxCell>
        <mxCell id="uxtLRJ9bp2ce0IZGOA4o-14" value="" style="endArrow=classic;html=1;rounded=1;exitX=0.75;exitY=1;exitDx=0;exitDy=0;strokeColor=light-dark(#FFD3D1,#BABDC0);strokeWidth=2;align=center;verticalAlign=middle;arcSize=14;fontFamily=Helvetica;fontSize=14;fontColor=default;fontStyle=0;fillColor=#FFECEA;" parent="1" source="Y4Lj4d0mCqBKrfURwG_y-6" edge="1">
          <mxGeometry width="50" height="50" relative="1" as="geometry">
            <mxPoint x="918.4728670525433" y="2195.5765213513623" as="sourcePoint" />
            <mxPoint x="972.4611697664209" y="2647.7895388055294" as="targetPoint" />
          </mxGeometry>
        </mxCell>
        <mxCell id="uxtLRJ9bp2ce0IZGOA4o-15" value="&lt;font style=&quot;font-size: 22px;&quot;&gt;normalisation des coordonnées&lt;/font&gt;&lt;div&gt;&lt;font style=&quot;font-size: 22px;&quot;&gt;(on divise par M&#39;M0?)&lt;/font&gt;&lt;/div&gt;" style="rounded=1;whiteSpace=wrap;html=1;strokeColor=light-dark(#FFD3D1,#BABDC0);strokeWidth=2;align=center;verticalAlign=middle;arcSize=14;fontFamily=Helvetica;fontSize=14;fontColor=default;fontStyle=0;fillColor=#FFECEA;" parent="1" vertex="1">
          <mxGeometry x="931.97" y="2647.79" width="216.03" height="135.21" as="geometry" />
        </mxCell>
        <mxCell id="sPmx9xp8ERYwyldhlcMQ-23" value="" style="edgeStyle=orthogonalEdgeStyle;rounded=0;orthogonalLoop=1;jettySize=auto;html=1;" parent="1" source="uxtLRJ9bp2ce0IZGOA4o-23" target="Y4Lj4d0mCqBKrfURwG_y-4" edge="1">
          <mxGeometry relative="1" as="geometry" />
        </mxCell>
        <mxCell id="uxtLRJ9bp2ce0IZGOA4o-23" value="&lt;font style=&quot;font-size: 20px;&quot;&gt;Image&amp;nbsp;&lt;/font&gt;" style="text;html=1;align=center;verticalAlign=middle;whiteSpace=wrap;rounded=0;" parent="1" vertex="1">
          <mxGeometry x="1115.9989785990858" y="1497.8951884534945" width="80.98245407081664" height="56.526627181770785" as="geometry" />
        </mxCell>
        <mxCell id="uxtLRJ9bp2ce0IZGOA4o-31" value="&lt;font style=&quot;font-size: 22px;&quot;&gt;M -&amp;gt; (0,0) par translation&amp;nbsp;&lt;/font&gt;&lt;div&gt;&lt;font style=&quot;font-size: 22px;&quot;&gt;On applique la même translation a toutes les autres étoiles&lt;/font&gt;&lt;/div&gt;" style="rounded=1;whiteSpace=wrap;html=1;strokeColor=light-dark(#FFD3D1,#BABDC0);strokeWidth=2;align=center;verticalAlign=middle;arcSize=14;fontFamily=Helvetica;fontSize=14;fontColor=default;fontStyle=0;fillColor=#FFECEA;" parent="1" vertex="1">
          <mxGeometry x="459.5722939845823" y="2877.909438062519" width="215.95321085551103" height="150.7376724847221" as="geometry" />
        </mxCell>
        <mxCell id="uxtLRJ9bp2ce0IZGOA4o-16" value="&lt;div&gt;&lt;font style=&quot;font-size: 20px;&quot;&gt;&lt;br&gt;&lt;/font&gt;&lt;/div&gt;&lt;div&gt;&lt;font style=&quot;font-size: 20px;&quot;&gt;base de coordonnées de chaque étoile dans chaque vues&amp;nbsp;&lt;/font&gt;&lt;/div&gt;&lt;div&gt;&lt;font style=&quot;font-size: 20px;&quot;&gt;json&lt;/font&gt;&lt;/div&gt;&lt;div&gt;&lt;br&gt;&lt;/div&gt;" style="rounded=1;whiteSpace=wrap;html=1;absoluteArcSize=1;arcSize=14;strokeWidth=2;strokeColor=none;fillColor=none;" parent="1" vertex="1">
          <mxGeometry x="1124" y="2393.11" width="175.75" height="188.42" as="geometry" />
        </mxCell>
        <mxCell id="eIgzOIId9O11CtZWAf4E-5" value="" style="group;movable=1;resizable=1;rotatable=1;deletable=1;editable=1;locked=0;connectable=1;" parent="1" connectable="0" vertex="1">
          <mxGeometry x="470.99844208618356" y="1827.0047706422015" width="149.7488411057259" height="174.96330275229354" as="geometry" />
        </mxCell>
        <mxCell id="sPmx9xp8ERYwyldhlcMQ-1" value="&lt;font style=&quot;font-size: 8px;&quot;&gt;Création&lt;/font&gt;&lt;div&gt;&lt;font style=&quot;font-size: 8px;&quot;&gt;de notre propre catalogue&lt;/font&gt;&lt;/div&gt;" style="text;html=1;align=center;verticalAlign=middle;whiteSpace=wrap;rounded=0;movable=0;resizable=0;rotatable=0;deletable=0;editable=0;locked=1;connectable=0;" parent="eIgzOIId9O11CtZWAf4E-5" vertex="1">
          <mxGeometry x="21.430000000000007" width="60" height="30" as="geometry" />
        </mxCell>
        <mxCell id="sPmx9xp8ERYwyldhlcMQ-3" value="" style="whiteSpace=wrap;html=1;aspect=fixed;movable=1;resizable=1;rotatable=1;deletable=1;editable=1;locked=0;connectable=1;" parent="eIgzOIId9O11CtZWAf4E-5" vertex="1">
          <mxGeometry y="47.99302752293577" width="69.14484974290436" height="69.14484974290436" as="geometry" />
        </mxCell>
        <mxCell id="sPmx9xp8ERYwyldhlcMQ-4" value="" style="html=1;verticalLabelPosition=bottom;labelBackgroundColor=#ffffff;verticalAlign=top;shadow=0;dashed=0;strokeWidth=2;shape=mxgraph.ios7.misc.star;fillColor=#FFF721;strokeColor=none;sketch=0;movable=0;resizable=0;rotatable=0;deletable=0;editable=0;locked=1;connectable=0;" parent="eIgzOIId9O11CtZWAf4E-5" vertex="1">
          <mxGeometry x="8.350000000000023" y="53.97000000000003" width="5.62" height="5.97" as="geometry" />
        </mxCell>
        <mxCell id="sPmx9xp8ERYwyldhlcMQ-5" value="" style="html=1;verticalLabelPosition=bottom;labelBackgroundColor=#ffffff;verticalAlign=top;shadow=0;dashed=0;strokeWidth=2;shape=mxgraph.ios7.misc.star;fillColor=#FFF721;strokeColor=none;sketch=0;movable=0;resizable=0;rotatable=0;deletable=0;editable=0;locked=1;connectable=0;" parent="eIgzOIId9O11CtZWAf4E-5" vertex="1">
          <mxGeometry x="35.81" y="59.940000000000055" width="5.62" height="5.97" as="geometry" />
        </mxCell>
        <mxCell id="sPmx9xp8ERYwyldhlcMQ-6" value="" style="html=1;verticalLabelPosition=bottom;labelBackgroundColor=#ffffff;verticalAlign=top;shadow=0;dashed=0;strokeWidth=2;shape=mxgraph.ios7.misc.star;fillColor=#FFF721;strokeColor=none;sketch=0;movable=0;resizable=0;rotatable=0;deletable=0;editable=0;locked=1;connectable=0;" parent="eIgzOIId9O11CtZWAf4E-5" vertex="1">
          <mxGeometry x="13.970000000000027" y="92.98000000000002" width="5.62" height="5.97" as="geometry" />
        </mxCell>
        <mxCell id="sPmx9xp8ERYwyldhlcMQ-7" value="" style="html=1;verticalLabelPosition=bottom;labelBackgroundColor=#ffffff;verticalAlign=top;shadow=0;dashed=0;strokeWidth=2;shape=mxgraph.ios7.misc.star;fillColor=#FFF721;strokeColor=none;sketch=0;movable=0;resizable=0;rotatable=0;deletable=0;editable=0;locked=1;connectable=0;" parent="eIgzOIId9O11CtZWAf4E-5" vertex="1">
          <mxGeometry x="19.590000000000032" y="72.00999999999999" width="5.62" height="5.97" as="geometry" />
        </mxCell>
        <mxCell id="sPmx9xp8ERYwyldhlcMQ-8" value="" style="html=1;verticalLabelPosition=bottom;labelBackgroundColor=#ffffff;verticalAlign=top;shadow=0;dashed=0;strokeWidth=2;shape=mxgraph.ios7.misc.star;fillColor=#FFF721;strokeColor=none;sketch=0;movable=0;resizable=0;rotatable=0;deletable=0;editable=0;locked=1;connectable=0;" parent="eIgzOIId9O11CtZWAf4E-5" vertex="1">
          <mxGeometry x="41.43000000000001" y="92.98000000000002" width="5.62" height="5.97" as="geometry" />
        </mxCell>
        <mxCell id="sPmx9xp8ERYwyldhlcMQ-9" value="" style="html=1;verticalLabelPosition=bottom;labelBackgroundColor=#ffffff;verticalAlign=top;shadow=0;dashed=0;strokeWidth=2;shape=mxgraph.ios7.misc.star;fillColor=#FFF721;strokeColor=none;sketch=0;movable=0;resizable=0;rotatable=0;deletable=0;editable=0;locked=1;connectable=0;" parent="eIgzOIId9O11CtZWAf4E-5" vertex="1">
          <mxGeometry x="48.620000000000005" y="68.73000000000002" width="5.62" height="5.97" as="geometry" />
        </mxCell>
        <mxCell id="sPmx9xp8ERYwyldhlcMQ-10" value="&lt;font style=&quot;font-size: 8px;&quot;&gt;Coordonnées&lt;/font&gt;" style="swimlane;fontStyle=0;childLayout=stackLayout;horizontal=1;startSize=20;horizontalStack=0;resizeParent=1;resizeParentMax=0;resizeLast=0;collapsible=1;marginBottom=0;whiteSpace=wrap;html=1;movable=0;resizable=0;rotatable=0;deletable=0;editable=0;locked=1;connectable=0;" parent="eIgzOIId9O11CtZWAf4E-5" vertex="1">
          <mxGeometry x="81.43" y="27.139999999999986" width="50" height="100" as="geometry">
            <mxRectangle x="-240" y="715" width="90" height="30" as="alternateBounds" />
          </mxGeometry>
        </mxCell>
        <mxCell id="sPmx9xp8ERYwyldhlcMQ-11" value="(x1,y1)" style="text;strokeColor=none;fillColor=none;align=left;verticalAlign=middle;spacingLeft=4;spacingRight=4;overflow=hidden;points=[[0,0.5],[1,0.5]];portConstraint=eastwest;rotatable=0;whiteSpace=wrap;html=1;movable=0;resizable=0;deletable=0;editable=0;locked=1;connectable=0;" parent="sPmx9xp8ERYwyldhlcMQ-10" vertex="1">
          <mxGeometry y="20" width="50" height="20" as="geometry" />
        </mxCell>
        <mxCell id="sPmx9xp8ERYwyldhlcMQ-12" value="(x2,y2)" style="text;strokeColor=none;fillColor=none;align=left;verticalAlign=middle;spacingLeft=4;spacingRight=4;overflow=hidden;points=[[0,0.5],[1,0.5]];portConstraint=eastwest;rotatable=0;whiteSpace=wrap;html=1;movable=0;resizable=0;deletable=0;editable=0;locked=1;connectable=0;" parent="sPmx9xp8ERYwyldhlcMQ-10" vertex="1">
          <mxGeometry y="40" width="50" height="20" as="geometry" />
        </mxCell>
        <mxCell id="sPmx9xp8ERYwyldhlcMQ-13" value="(x3,y3)" style="text;strokeColor=none;fillColor=none;align=left;verticalAlign=middle;spacingLeft=4;spacingRight=4;overflow=hidden;points=[[0,0.5],[1,0.5]];portConstraint=eastwest;rotatable=0;whiteSpace=wrap;html=1;movable=0;resizable=0;deletable=0;editable=0;locked=1;connectable=0;" parent="sPmx9xp8ERYwyldhlcMQ-10" vertex="1">
          <mxGeometry y="60" width="50" height="20" as="geometry" />
        </mxCell>
        <mxCell id="sPmx9xp8ERYwyldhlcMQ-19" value="..." style="text;strokeColor=none;fillColor=none;align=left;verticalAlign=middle;spacingLeft=4;spacingRight=4;overflow=hidden;points=[[0,0.5],[1,0.5]];portConstraint=eastwest;rotatable=0;whiteSpace=wrap;html=1;movable=0;resizable=0;deletable=0;editable=0;locked=1;connectable=0;" parent="sPmx9xp8ERYwyldhlcMQ-10" vertex="1">
          <mxGeometry y="80" width="50" height="20" as="geometry" />
        </mxCell>
        <mxCell id="eIgzOIId9O11CtZWAf4E-9" value="&lt;font style=&quot;font-size: 22px;&quot;&gt;coordonnées&lt;/font&gt;&lt;div&gt;&lt;font style=&quot;font-size: 22px;&quot;&gt;étoiles&lt;/font&gt;&lt;/div&gt;" style="whiteSpace=wrap;html=1;rounded=1;absoluteArcSize=1;arcSize=14;strokeWidth=2;fillColor=light-dark(#c3ddf9, #281d00);strokeColor=light-dark(#457ec9, #7f6a19);align=center;verticalAlign=middle;fontFamily=Helvetica;fontSize=12;fontColor=default;fontStyle=0;gradientColor=none;" parent="1" vertex="1">
          <mxGeometry x="1292.2326597053107" y="1985.1509652863701" width="161.9649081416333" height="113.05325436354157" as="geometry" />
        </mxCell>
        <mxCell id="eIgzOIId9O11CtZWAf4E-12" value="" style="edgeStyle=orthogonalEdgeStyle;rounded=1;orthogonalLoop=1;jettySize=auto;html=1;strokeColor=light-dark(#457ec9, #7f6a19);strokeWidth=2;align=center;verticalAlign=middle;arcSize=14;absoluteArcSize=1;fontFamily=Helvetica;fontSize=12;fontColor=default;fontStyle=0;labelBackgroundColor=default;startSize=8;endArrow=classic;endSize=8;fillColor=light-dark(#c3ddf9, #281d00);gradientColor=none;" parent="1" source="eIgzOIId9O11CtZWAf4E-11" target="eIgzOIId9O11CtZWAf4E-9" edge="1">
          <mxGeometry relative="1" as="geometry" />
        </mxCell>
        <mxCell id="eIgzOIId9O11CtZWAf4E-11" value="&lt;font style=&quot;font-size: 20px;&quot;&gt;image.png&lt;/font&gt;" style="text;html=1;align=center;verticalAlign=middle;resizable=0;points=[];autosize=1;strokeColor=none;fillColor=none;" parent="1" vertex="1">
          <mxGeometry x="1015.0036002067386" y="2023.6742788772553" width="111" height="36" as="geometry" />
        </mxCell>
        <mxCell id="eIgzOIId9O11CtZWAf4E-15" style="edgeStyle=orthogonalEdgeStyle;rounded=1;orthogonalLoop=1;jettySize=auto;html=1;exitX=1;exitY=0.5;exitDx=0;exitDy=0;entryX=0.4;entryY=0.975;entryDx=0;entryDy=0;entryPerimeter=0;strokeColor=light-dark(#457ec9, #7f6a19);strokeWidth=2;align=center;verticalAlign=middle;arcSize=14;absoluteArcSize=1;fontFamily=Helvetica;fontSize=12;fontColor=default;fontStyle=0;labelBackgroundColor=default;startSize=8;endArrow=classic;endSize=8;fillColor=light-dark(#c3ddf9, #281d00);gradientColor=none;" parent="1" source="eIgzOIId9O11CtZWAf4E-9" target="Y4Lj4d0mCqBKrfURwG_y-2" edge="1">
          <mxGeometry relative="1" as="geometry" />
        </mxCell>
        <mxCell id="Y4Lj4d0mCqBKrfURwG_y-50" value="" style="group" parent="1" vertex="1" connectable="0">
          <mxGeometry x="2355.0025729076515" y="1691.0029437811286" width="284.11344303178174" height="305.2437867815622" as="geometry" />
        </mxCell>
        <mxCell id="Y4Lj4d0mCqBKrfURwG_y-41" value="&lt;font style=&quot;font-size: 20px;&quot;&gt;calcul des F1 et F2 pour chaque étoiles de ref&amp;nbsp;&lt;/font&gt;" style="rounded=1;whiteSpace=wrap;html=1;absoluteArcSize=1;arcSize=14;strokeWidth=2;strokeColor=light-dark(#457ec9, #7f6a19);align=center;verticalAlign=middle;fontFamily=Helvetica;fontSize=12;fontColor=default;fontStyle=0;fillColor=light-dark(#c3ddf9, #281d00);gradientColor=none;" parent="Y4Lj4d0mCqBKrfURwG_y-50" vertex="1">
          <mxGeometry x="16" y="-1" width="189.63391328249563" height="116.82169617565961" as="geometry" />
        </mxCell>
        <mxCell id="Y4Lj4d0mCqBKrfURwG_y-57" value="&lt;font style=&quot;font-size: 20px;&quot;&gt;distances&amp;nbsp;&lt;/font&gt;" style="rounded=1;whiteSpace=wrap;html=1;absoluteArcSize=1;arcSize=14;strokeWidth=2;strokeColor=light-dark(#457ec9, #7f6a19);align=center;verticalAlign=middle;fontFamily=Helvetica;fontSize=12;fontColor=default;fontStyle=0;fillColor=light-dark(#c3ddf9, #281d00);gradientColor=none;" parent="Y4Lj4d0mCqBKrfURwG_y-50" vertex="1">
          <mxGeometry x="15.999999999999998" y="236" width="100.49" height="75.37" as="geometry" />
        </mxCell>
        <mxCell id="Y4Lj4d0mCqBKrfURwG_y-73" style="edgeStyle=none;rounded=1;orthogonalLoop=1;jettySize=auto;html=1;exitX=0.25;exitY=1;exitDx=0;exitDy=0;entryX=0.5;entryY=0;entryDx=0;entryDy=0;fontSize=12;startSize=8;endSize=8;strokeColor=light-dark(#457ec9, #7f6a19);strokeWidth=2;align=center;verticalAlign=middle;arcSize=14;absoluteArcSize=1;fontFamily=Helvetica;fontColor=default;fontStyle=0;fillColor=light-dark(#c3ddf9, #281d00);gradientColor=none;" parent="Y4Lj4d0mCqBKrfURwG_y-50" source="Y4Lj4d0mCqBKrfURwG_y-41" target="Y4Lj4d0mCqBKrfURwG_y-57" edge="1">
          <mxGeometry relative="1" as="geometry" />
        </mxCell>
        <mxCell id="Y4Lj4d0mCqBKrfURwG_y-70" style="edgeStyle=none;rounded=1;orthogonalLoop=1;jettySize=auto;html=1;exitX=0.25;exitY=0;exitDx=0;exitDy=0;fontSize=12;startSize=8;endSize=8;strokeColor=light-dark(#457ec9, #7f6a19);strokeWidth=2;align=center;verticalAlign=middle;arcSize=14;absoluteArcSize=1;fontFamily=Helvetica;fontColor=default;fontStyle=0;fillColor=light-dark(#c3ddf9, #281d00);gradientColor=none;entryX=0.555;entryY=0.981;entryDx=0;entryDy=0;entryPerimeter=0;startArrow=classic;startFill=0;endArrow=none;endFill=1;" parent="1" source="Y4Lj4d0mCqBKrfURwG_y-56" target="Y4Lj4d0mCqBKrfURwG_y-55" edge="1">
          <mxGeometry relative="1" as="geometry">
            <mxPoint x="2197.887664766018" y="1796.724639956788" as="targetPoint" />
          </mxGeometry>
        </mxCell>
        <mxCell id="Y4Lj4d0mCqBKrfURwG_y-55" value="&lt;font style=&quot;font-size: 20px;&quot;&gt;calcul des H pour chaque étoiles de ref&amp;nbsp;&lt;/font&gt;" style="rounded=1;whiteSpace=wrap;html=1;absoluteArcSize=1;arcSize=14;strokeWidth=2;strokeColor=light-dark(#457ec9, #7f6a19);align=center;verticalAlign=middle;fontFamily=Helvetica;fontSize=12;fontColor=default;fontStyle=0;fillColor=light-dark(#c3ddf9, #281d00);gradientColor=none;" parent="1" vertex="1">
          <mxGeometry x="2095.001059338263" y="1691.0029437811286" width="189.63391328249563" height="116.82169617565961" as="geometry" />
        </mxCell>
        <mxCell id="Y4Lj4d0mCqBKrfURwG_y-56" value="&lt;font style=&quot;font-size: 20px;&quot;&gt;angles&amp;nbsp;&lt;/font&gt;" style="rounded=1;whiteSpace=wrap;html=1;absoluteArcSize=1;arcSize=14;strokeWidth=2;strokeColor=light-dark(#457ec9, #7f6a19);align=center;verticalAlign=middle;fontFamily=Helvetica;fontSize=12;fontColor=default;fontStyle=0;fillColor=light-dark(#c3ddf9, #281d00);gradientColor=none;" parent="1" vertex="1">
          <mxGeometry x="2174.004740444488" y="1928.62789432033" width="94.47952974928609" height="75.36883624236106" as="geometry" />
        </mxCell>
        <mxCell id="Y4Lj4d0mCqBKrfURwG_y-71" style="edgeStyle=none;rounded=0;orthogonalLoop=1;jettySize=auto;html=1;fontSize=12;startSize=8;endSize=8;strokeColor=light-dark(#457ec9, #7f6a19);strokeWidth=2;align=center;verticalAlign=middle;arcSize=14;absoluteArcSize=1;fontFamily=Helvetica;fontColor=default;fontStyle=0;fillColor=light-dark(#c3ddf9, #281d00);gradientColor=none;curved=0;entryX=0.25;entryY=0;entryDx=0;entryDy=0;exitX=0.75;exitY=1;exitDx=0;exitDy=0;" parent="1" source="Y4Lj4d0mCqBKrfURwG_y-55" target="Y4Lj4d0mCqBKrfURwG_y-57" edge="1">
          <mxGeometry relative="1" as="geometry">
            <Array as="points" />
          </mxGeometry>
        </mxCell>
        <mxCell id="Y4Lj4d0mCqBKrfURwG_y-82" value="" style="group" parent="1" vertex="1" connectable="0">
          <mxGeometry x="2119.001059338263" y="1462.2767920510998" width="484" height="115.56554890495362" as="geometry" />
        </mxCell>
        <mxCell id="Y4Lj4d0mCqBKrfURwG_y-81" style="edgeStyle=none;rounded=1;orthogonalLoop=1;jettySize=auto;html=1;exitX=1;exitY=0.5;exitDx=0;exitDy=0;entryX=0;entryY=0.5;entryDx=0;entryDy=0;fontSize=12;startSize=8;endSize=8;strokeColor=light-dark(#457ec9, #7f6a19);strokeWidth=2;align=center;verticalAlign=middle;arcSize=14;absoluteArcSize=1;fontFamily=Helvetica;fontColor=default;fontStyle=0;fillColor=light-dark(#c3ddf9, #281d00);gradientColor=none;" parent="Y4Lj4d0mCqBKrfURwG_y-82" source="Y4Lj4d0mCqBKrfURwG_y-67" target="Y4Lj4d0mCqBKrfURwG_y-80" edge="1">
          <mxGeometry relative="1" as="geometry" />
        </mxCell>
        <mxCell id="Y4Lj4d0mCqBKrfURwG_y-67" value="&lt;font style=&quot;font-size: 22px;&quot;&gt;Double triangle&amp;nbsp;&lt;/font&gt;" style="rounded=1;whiteSpace=wrap;html=1;absoluteArcSize=1;arcSize=14;strokeWidth=2;strokeColor=light-dark(#457ec9, #7f6a19);align=center;verticalAlign=middle;fontFamily=Helvetica;fontSize=12;fontColor=default;fontStyle=0;fillColor=light-dark(#c3ddf9, #281d00);gradientColor=none;" parent="Y4Lj4d0mCqBKrfURwG_y-82" vertex="1">
          <mxGeometry x="161.9649081416333" width="144.83473008103255" height="115.56554890495362" as="geometry" />
        </mxCell>
        <mxCell id="Y4Lj4d0mCqBKrfURwG_y-79" value="" style="edgeStyle=none;rounded=1;orthogonalLoop=1;jettySize=auto;html=1;fontSize=12;startSize=8;endSize=8;strokeColor=light-dark(#457ec9, #7f6a19);strokeWidth=2;align=center;verticalAlign=middle;arcSize=14;absoluteArcSize=1;fontFamily=Helvetica;fontColor=default;fontStyle=0;fillColor=light-dark(#c3ddf9, #281d00);gradientColor=none;" parent="Y4Lj4d0mCqBKrfURwG_y-82" source="Y4Lj4d0mCqBKrfURwG_y-78" target="Y4Lj4d0mCqBKrfURwG_y-67" edge="1">
          <mxGeometry relative="1" as="geometry" />
        </mxCell>
        <mxCell id="Y4Lj4d0mCqBKrfURwG_y-78" value="&lt;div&gt;&lt;font style=&quot;font-size: 20px;&quot;&gt;fichier Json&lt;/font&gt;&lt;/div&gt;" style="text;html=1;align=center;verticalAlign=middle;whiteSpace=wrap;rounded=0;fontFamily=Helvetica;fontSize=12;fontColor=default;fontStyle=0;" parent="Y4Lj4d0mCqBKrfURwG_y-82" vertex="1">
          <mxGeometry x="-34" y="29.53" width="114.98" height="56.53" as="geometry" />
        </mxCell>
        <mxCell id="Y4Lj4d0mCqBKrfURwG_y-80" value="&lt;font style=&quot;font-size: 20px;&quot;&gt;F1, F2 et H&lt;/font&gt;" style="text;html=1;align=center;verticalAlign=middle;whiteSpace=wrap;rounded=0;" parent="Y4Lj4d0mCqBKrfURwG_y-82" vertex="1">
          <mxGeometry x="350.92" y="29.53" width="133.08" height="56.53" as="geometry" />
        </mxCell>
        <mxCell id="Y4Lj4d0mCqBKrfURwG_y-75" style="edgeStyle=none;rounded=1;orthogonalLoop=1;jettySize=auto;html=1;exitX=0.25;exitY=0;exitDx=0;exitDy=0;fontSize=12;startSize=8;endSize=8;strokeColor=light-dark(#457ec9, #7f6a19);strokeWidth=2;align=center;verticalAlign=middle;arcSize=14;absoluteArcSize=1;fontFamily=Helvetica;fontColor=default;fontStyle=0;fillColor=light-dark(#c3ddf9, #281d00);gradientColor=none;endArrow=none;startFill=1;startArrow=classic;" parent="1" source="Y4Lj4d0mCqBKrfURwG_y-41" target="Y4Lj4d0mCqBKrfURwG_y-67" edge="1">
          <mxGeometry relative="1" as="geometry" />
        </mxCell>
        <mxCell id="Y4Lj4d0mCqBKrfURwG_y-74" style="edgeStyle=none;rounded=1;orthogonalLoop=1;jettySize=auto;html=1;exitX=0.75;exitY=0;exitDx=0;exitDy=0;entryX=0.25;entryY=1;entryDx=0;entryDy=0;fontSize=12;startSize=8;endSize=8;strokeColor=light-dark(#457ec9, #7f6a19);strokeWidth=2;align=center;verticalAlign=middle;arcSize=14;absoluteArcSize=1;fontFamily=Helvetica;fontColor=default;fontStyle=0;fillColor=light-dark(#c3ddf9, #281d00);gradientColor=none;startArrow=classic;startFill=1;endArrow=none;" parent="1" source="Y4Lj4d0mCqBKrfURwG_y-55" target="Y4Lj4d0mCqBKrfURwG_y-67" edge="1">
          <mxGeometry relative="1" as="geometry" />
        </mxCell>
        <mxCell id="JqaUWuuIqeqrYsrJ6V1h-1" style="edgeStyle=orthogonalEdgeStyle;rounded=0;orthogonalLoop=1;jettySize=auto;html=1;exitX=0.5;exitY=1;exitDx=0;exitDy=0;" parent="1" source="X_0OvHiyyq__KpYY6KHa-25" target="X_0OvHiyyq__KpYY6KHa-25" edge="1">
          <mxGeometry relative="1" as="geometry" />
        </mxCell>
        <mxCell id="rVA7DmSS4Ny5QIhH6Kqi-30" value="" style="edgeStyle=orthogonalEdgeStyle;rounded=1;orthogonalLoop=1;jettySize=auto;html=1;strokeColor=light-dark(#457ec9, #7f6a19);strokeWidth=2;align=center;verticalAlign=middle;arcSize=14;absoluteArcSize=1;fontFamily=Helvetica;fontSize=12;fontColor=default;fontStyle=0;labelBackgroundColor=default;startSize=8;endArrow=classic;endSize=8;fillColor=light-dark(#c3ddf9, #281d00);gradientColor=none;" parent="1" source="vtyGRnQgsWWQ4yg0oaad-72" target="rVA7DmSS4Ny5QIhH6Kqi-29" edge="1">
          <mxGeometry relative="1" as="geometry" />
        </mxCell>
        <mxCell id="eIgzOIId9O11CtZWAf4E-8" value="" style="edgeStyle=orthogonalEdgeStyle;rounded=0;orthogonalLoop=1;jettySize=auto;html=1;" parent="1" source="vtyGRnQgsWWQ4yg0oaad-72" target="eIgzOIId9O11CtZWAf4E-7" edge="1">
          <mxGeometry relative="1" as="geometry" />
        </mxCell>
        <mxCell id="vtyGRnQgsWWQ4yg0oaad-72" value="&lt;font style=&quot;font-size: 22px;&quot;&gt;Ajout du nom sur l&#39;image&lt;/font&gt;&lt;span style=&quot;font-size: 22px; background-color: transparent; color: light-dark(rgb(0, 0, 0), rgb(255, 255, 255));&quot;&gt;&amp;nbsp;&lt;/span&gt;" style="rounded=1;whiteSpace=wrap;html=1;absoluteArcSize=1;arcSize=14;strokeWidth=2;fontSize=14;fontStyle=1;fillColor=light-dark(#c3ddf9, #281d00);strokeColor=light-dark(#457ec9, #7f6a19);gradientColor=none;" parent="1" vertex="1">
          <mxGeometry x="3725" y="1169.79" width="230" height="188.42" as="geometry" />
        </mxCell>
        <mxCell id="eIgzOIId9O11CtZWAf4E-4" value="" style="edgeStyle=orthogonalEdgeStyle;rounded=1;orthogonalLoop=1;jettySize=auto;html=1;strokeColor=light-dark(#457ec9, #7f6a19);strokeWidth=2;align=center;verticalAlign=middle;arcSize=14;absoluteArcSize=1;fontFamily=Helvetica;fontSize=12;fontColor=default;fontStyle=0;labelBackgroundColor=default;startSize=8;endArrow=classic;endSize=8;fillColor=light-dark(#c3ddf9, #281d00);gradientColor=none;" parent="1" source="rVA7DmSS4Ny5QIhH6Kqi-29" target="eIgzOIId9O11CtZWAf4E-3" edge="1">
          <mxGeometry relative="1" as="geometry" />
        </mxCell>
        <mxCell id="rVA7DmSS4Ny5QIhH6Kqi-29" value="&lt;span style=&quot;font-weight: normal;&quot;&gt;&lt;font style=&quot;font-size: 22px;&quot;&gt;fonction ajout nom&lt;/font&gt;&lt;/span&gt;" style="rounded=1;whiteSpace=wrap;html=1;absoluteArcSize=1;arcSize=14;strokeWidth=2;fillColor=light-dark(#c3ddf9, #281d00);strokeColor=light-dark(#457ec9, #7f6a19);align=center;verticalAlign=middle;fontFamily=Helvetica;fontSize=14;fontColor=default;fontStyle=1;gradientColor=none;" parent="1" vertex="1">
          <mxGeometry x="3766.5" y="1662.0000000000002" width="147" height="188.42" as="geometry" />
        </mxCell>
        <mxCell id="eIgzOIId9O11CtZWAf4E-2" value="" style="edgeStyle=orthogonalEdgeStyle;rounded=1;orthogonalLoop=1;jettySize=auto;html=1;strokeColor=light-dark(#457ec9, #7f6a19);strokeWidth=2;align=center;verticalAlign=middle;arcSize=14;absoluteArcSize=1;fontFamily=Helvetica;fontSize=12;fontColor=default;fontStyle=0;labelBackgroundColor=default;startSize=8;endArrow=classic;endSize=8;fillColor=light-dark(#c3ddf9, #281d00);gradientColor=none;" parent="1" source="eIgzOIId9O11CtZWAf4E-1" target="rVA7DmSS4Ny5QIhH6Kqi-29" edge="1">
          <mxGeometry relative="1" as="geometry" />
        </mxCell>
        <mxCell id="eIgzOIId9O11CtZWAf4E-1" value="&lt;font style=&quot;font-size: 20px;&quot;&gt;fichier json&amp;nbsp;&lt;/font&gt;&lt;div&gt;&lt;font style=&quot;font-size: 20px;&quot;&gt;+&amp;nbsp;&lt;/font&gt;&lt;/div&gt;&lt;div&gt;&lt;font style=&quot;font-size: 20px;&quot;&gt;image de base&amp;nbsp;&lt;/font&gt;&lt;/div&gt;" style="text;html=1;align=center;verticalAlign=middle;resizable=0;points=[];autosize=1;strokeColor=none;fillColor=none;" parent="1" vertex="1">
          <mxGeometry x="3507.996270918191" y="1714.2071410716194" width="155" height="84" as="geometry" />
        </mxCell>
        <mxCell id="eIgzOIId9O11CtZWAf4E-7" value="&lt;font style=&quot;font-size: 20px;&quot;&gt;Image_finale.png&lt;/font&gt;" style="text;html=1;align=center;verticalAlign=middle;resizable=0;points=[];autosize=1;strokeColor=none;fillColor=none;" parent="1" vertex="1">
          <mxGeometry x="4014.0004736837527" y="1246.5007231639836" width="171" height="36" as="geometry" />
        </mxCell>
        <mxCell id="eIgzOIId9O11CtZWAf4E-3" value="&lt;font style=&quot;font-size: 20px;&quot;&gt;image.png&amp;nbsp;&lt;/font&gt;" style="text;html=1;align=center;verticalAlign=middle;resizable=0;points=[];autosize=1;strokeColor=none;fillColor=none;" parent="1" vertex="1">
          <mxGeometry x="4000.003162879928" y="1738.2104546625046" width="117" height="36" as="geometry" />
        </mxCell>
        <mxCell id="ku5wXdFB79pIFWUU4cIJ-1" value="" style="html=1;verticalLabelPosition=bottom;labelBackgroundColor=#ffffff;verticalAlign=top;shadow=0;dashed=0;strokeWidth=2;shape=mxgraph.ios7.misc.star;fillColor=#fff2cc;strokeColor=#d6b656;sketch=0;" parent="1" vertex="1">
          <mxGeometry x="2752" y="1262" width="20.63" height="24" as="geometry" />
        </mxCell>
        <mxCell id="jSAXyjk_ZXR4QeWLhcXr-7" style="edgeStyle=orthogonalEdgeStyle;rounded=0;orthogonalLoop=1;jettySize=auto;html=1;exitX=1;exitY=0.5;exitDx=0;exitDy=0;entryX=0;entryY=0.5;entryDx=0;entryDy=0;strokeColor=light-dark(#8126ab, #9577a3);strokeWidth=2;align=center;verticalAlign=middle;arcSize=14;absoluteArcSize=1;fontFamily=Helvetica;fontSize=12;fontColor=default;fontStyle=1;fillColor=#CC99FF;curved=0;" parent="1" source="Y4Lj4d0mCqBKrfURwG_y-80" target="Y4Lj4d0mCqBKrfURwG_y-85" edge="1">
          <mxGeometry relative="1" as="geometry" />
        </mxCell>
        <mxCell id="jSAXyjk_ZXR4QeWLhcXr-8" style="edgeStyle=orthogonalEdgeStyle;rounded=0;orthogonalLoop=1;jettySize=auto;html=1;strokeColor=light-dark(#FFD3D1,#BABDC0);strokeWidth=2;align=center;verticalAlign=middle;arcSize=14;fontFamily=Helvetica;fontSize=14;fontColor=default;fontStyle=0;labelBackgroundColor=default;startSize=8;endArrow=classic;endSize=8;curved=1;fillColor=#FFECEA;" parent="1" source="jSAXyjk_ZXR4QeWLhcXr-4" target="vtyGRnQgsWWQ4yg0oaad-70" edge="1">
          <mxGeometry relative="1" as="geometry" />
        </mxCell>
        <mxCell id="Y4Lj4d0mCqBKrfURwG_y-72" style="edgeStyle=none;rounded=1;orthogonalLoop=1;jettySize=auto;html=1;exitX=0.177;exitY=0.998;exitDx=0;exitDy=0;fontSize=12;startSize=8;endSize=8;strokeColor=light-dark(#457ec9, #7f6a19);strokeWidth=2;align=center;verticalAlign=middle;arcSize=14;absoluteArcSize=1;fontFamily=Helvetica;fontColor=default;fontStyle=0;fillColor=light-dark(#c3ddf9, #281d00);gradientColor=none;entryX=0.75;entryY=0;entryDx=0;entryDy=0;exitPerimeter=0;" parent="1" source="Y4Lj4d0mCqBKrfURwG_y-41" target="Y4Lj4d0mCqBKrfURwG_y-56" edge="1">
          <mxGeometry relative="1" as="geometry">
            <mxPoint x="2262.5854390505165" y="1938.4942509279786" as="sourcePoint" />
          </mxGeometry>
        </mxCell>
        <mxCell id="ku5wXdFB79pIFWUU4cIJ-12" style="edgeStyle=none;rounded=1;orthogonalLoop=1;jettySize=auto;html=1;entryX=0.33;entryY=0.002;entryDx=0;entryDy=0;entryPerimeter=0;fontSize=14;startSize=8;endSize=8;strokeColor=light-dark(#FFD3D1,#BABDC0);strokeWidth=2;align=center;verticalAlign=middle;arcSize=14;absoluteArcSize=1;fontFamily=Helvetica;fontColor=default;fontStyle=1;fillColor=#FFECEA;" parent="1" target="Y4Lj4d0mCqBKrfURwG_y-85" edge="1">
          <mxGeometry relative="1" as="geometry">
            <mxPoint x="2717" y="1321" as="sourcePoint" />
          </mxGeometry>
        </mxCell>
        <mxCell id="jSAXyjk_ZXR4QeWLhcXr-4" value="&lt;div&gt;&lt;font style=&quot;font-size: 17px;&quot;&gt;fichier json complété pour chaque étoile x avec son match à la vue centrée sur l&#39;étoile x&lt;br&gt;&lt;/font&gt;&lt;/div&gt;&lt;div&gt;&lt;font style=&quot;font-size: 17px;&quot;&gt;(=vue n°x)&lt;br&gt;&lt;/font&gt;&lt;/div&gt;" style="text;html=1;align=center;verticalAlign=middle;whiteSpace=wrap;rounded=0;" parent="1" vertex="1">
          <mxGeometry x="2951" y="1530.4499999999998" width="192.83" height="35" as="geometry" />
        </mxCell>
      </root>
    </mxGraphModel>
  </diagram>
</mxfile>
